# xmcd
#
# Track frame offsets:
# 150
# 18555
# 36400
# 48460
# 62163
# 75298
# 91420
# 105418
# 119738
# 136933
# 156163
#
# Disc length: 2335 seconds
#
#
# Revision: 0
# Processed by: cddbd v1.5.2PL0 Copyright (c) Steve Scherf et al.
# Submitted via: FreeRIP 2.51 
#
DISCID=8d091d0b
DTITLE=VINKO COCE - MIRNO SPAVAJ, RUZO MOJA
DYEAR=1993
DGENRE=Pop-Folk
TTITLE0=Sicas li se, lungomare
TTITLE1=Mirno spavaj, ruzo moja
TTITLE2=Siti se kad ostaris
TTITLE3=Hej, zivote moj
TTITLE4=U zaljevu malom
TTITLE5=Dalmacio, sve ti cvitalo
TTITLE6=Da je meni s tobom kroz pasike
TTITLE7=Sve ti dajem za lipotu
TTITLE8=Klapa i pisma
TTITLE9=Koliko te na rastanku volim
TTITLE10=Najdraze moje
EXTD=
EXTT0=
EXTT1=
EXTT2=
EXTT3=
EXTT4=
EXTT5=
EXTT6=
EXTT7=
EXTT8=
EXTT9=
EXTT10=
PLAYORDER=
